<?xml version="1.0" encoding="UTF-8"?>
<svg id="Layer_1" xmlns="http://www.w3.org/2000/svg" baseProfile="tiny" version="1.2" viewBox="0 0 360 360">
  <!-- Generator: Adobe Illustrator 29.3.0, SVG Export Plug-In . SVG Version: 2.1.0 Build 146)  -->
  <path d="M157.9,350.7V118.9h92.8c17.1,0,31.3,2.5,42.7,7.6,11.4,5.1,20,12.1,25.7,21,5.7,8.9,8.6,19.2,8.6,30.9s-1.8,17-5.4,23.8c-3.6,6.8-8.6,12.4-14.9,16.8-6.3,4.3-13.5,7.4-21.6,9.2v2.3c8.8.4,17.1,2.9,24.9,7.5,7.7,4.6,14,11,18.9,19.3,4.8,8.3,7.2,18.1,7.2,29.5s-3,23.3-9.1,32.9c-6.1,9.6-15,17.2-26.9,22.8-11.9,5.6-26.5,8.4-43.8,8.4h-99.1ZM206.9,215.9h36.3c6.7,0,12.7-1.2,17.9-3.6,5.2-2.4,9.4-5.8,12.5-10.1,3.1-4.4,4.6-9.6,4.6-15.7s-3-15.1-8.9-20.3c-5.9-5.1-14.3-7.7-25.2-7.7h-37.2v57.4ZM206.9,310.6h40c13.7,0,23.6-2.6,29.9-7.9,6.3-5.2,9.4-12.2,9.4-21s-1.5-12.1-4.6-17c-3.1-4.9-7.5-8.8-13.2-11.5-5.7-2.8-12.5-4.2-20.3-4.2h-41.1v61.6Z" fill="#4b8934"/>
  <path d="M27.9,243V11.2h92.8c17.1,0,31.3,2.5,42.7,7.6,11.4,5.1,20,12.1,25.7,21,5.7,8.9,8.6,19.2,8.6,30.9s-1.8,17-5.4,23.8c-3.6,6.8-8.6,12.4-14.9,16.8-6.3,4.3-13.5,7.4-21.6,9.2v2.3c8.8.4,17.1,2.9,24.9,7.5,7.7,4.6,14,11,18.9,19.3,4.8,8.3,7.2,18.1,7.2,29.5s-3,23.3-9.1,32.9c-6.1,9.6-15,17.2-26.9,22.8-11.9,5.6-26.5,8.4-43.8,8.4H27.9ZM76.9,108.2h36.3c6.7,0,12.7-1.2,17.9-3.6,5.2-2.4,9.4-5.8,12.5-10.1,3.1-4.4,4.6-9.6,4.6-15.7s-3-15.1-8.9-20.3c-5.9-5.1-14.3-7.7-25.2-7.7h-37.2v57.4ZM76.9,203h40c13.7,0,23.6-2.6,29.9-7.9,6.3-5.2,9.4-12.2,9.4-21s-1.5-12.1-4.6-17c-3.1-4.9-7.5-8.8-13.2-11.5-5.7-2.8-12.5-4.2-20.3-4.2h-41.1v61.6Z" fill="#4b8934"/>
  <rect x="140.7" y="114.7" width="19.7" height="19.7" fill="#4b8934"/>
</svg>