<svg width="70" height="77" viewBox="0 0 70 77" fill="none" xmlns="http://www.w3.org/2000/svg">
<rect width="70" height="77" rx="14" fill="#6A7282"/>
<rect x="1.75" y="1.75" width="66.5" height="66.5" rx="12.25" fill="white" stroke="#6A7282" stroke-width="3.5"/>
<path d="M31.4043 33.2031H28.9668C28.873 32.6823 28.6986 32.224 28.4434 31.8281C28.1882 31.4323 27.8757 31.0964 27.5059 30.8203C27.1361 30.5443 26.722 30.3359 26.2637 30.1953C25.8105 30.0547 25.3288 29.9844 24.8184 29.9844C23.8965 29.9844 23.071 30.2161 22.3418 30.6797C21.6178 31.1432 21.0449 31.8229 20.623 32.7187C20.2064 33.6146 19.998 34.7083 19.998 36C19.998 37.3021 20.2064 38.401 20.623 39.2969C21.0449 40.1927 21.6204 40.8698 22.3496 41.3281C23.0788 41.7865 23.8991 42.0156 24.8105 42.0156C25.3158 42.0156 25.7949 41.9479 26.248 41.8125C26.7064 41.6719 27.1204 41.4661 27.4902 41.1953C27.86 40.9245 28.1725 40.5937 28.4277 40.2031C28.6882 39.8073 28.8678 39.3542 28.9668 38.8438L31.4043 38.8516C31.2741 39.638 31.0215 40.362 30.6465 41.0234C30.2767 41.6797 29.8001 42.2474 29.2168 42.7266C28.6387 43.2005 27.9772 43.5677 27.2324 43.8281C26.4876 44.0885 25.6751 44.2187 24.7949 44.2187C23.4095 44.2187 22.1751 43.8906 21.0918 43.2344C20.0085 42.5729 19.1543 41.6276 18.5293 40.3984C17.9095 39.1693 17.5996 37.7031 17.5996 36C17.5996 34.2917 17.9121 32.8255 18.5371 31.6016C19.1621 30.3724 20.0163 29.4297 21.0996 28.7734C22.1829 28.112 23.4147 27.7812 24.7949 27.7812C25.6439 27.7812 26.4355 27.9036 27.1699 28.1484C27.9095 28.388 28.5736 28.7422 29.1621 29.2109C29.7507 29.6745 30.2376 30.2422 30.623 30.9141C31.0085 31.5807 31.2689 32.3437 31.4043 33.2031ZM39.707 32V33.875H33.1523V32H39.707ZM34.9102 29.125H37.2461V40.4766C37.2461 40.9297 37.3138 41.2708 37.4492 41.5C37.5846 41.724 37.7591 41.8776 37.9727 41.9609C38.1914 42.0391 38.4284 42.0781 38.6836 42.0781C38.8711 42.0781 39.0352 42.0651 39.1758 42.0391C39.3164 42.013 39.4258 41.9922 39.5039 41.9766L39.9258 43.9062C39.7904 43.9583 39.5977 44.0104 39.3477 44.0625C39.0977 44.1198 38.7852 44.151 38.4102 44.1563C37.7956 44.1667 37.2227 44.0573 36.6914 43.8281C36.1602 43.599 35.7305 43.2448 35.4023 42.7656C35.0742 42.2865 34.9102 41.6849 34.9102 40.9609V29.125ZM42.291 44V32H44.5488V33.9062H44.6738C44.8926 33.2604 45.278 32.7526 45.8301 32.3828C46.3874 32.0078 47.0176 31.8203 47.7207 31.8203C47.8665 31.8203 48.0384 31.8255 48.2363 31.8359C48.4395 31.8464 48.5983 31.8594 48.7129 31.875V34.1094C48.6191 34.0833 48.4525 34.0547 48.2129 34.0234C47.9733 33.987 47.7337 33.9687 47.4941 33.9687C46.9421 33.9687 46.4499 34.0859 46.0176 34.3203C45.5905 34.5495 45.252 34.8698 45.002 35.2812C44.752 35.6875 44.627 36.151 44.627 36.6719V44H42.291ZM53.0703 28V44H50.7344V28H53.0703Z" fill="#6A7282"/>
</svg>
