<svg width="203" height="58" viewBox="0 0 203 58" fill="none" xmlns="http://www.w3.org/2000/svg">
<g filter="url(#filter0_d_66_1569)">
<rect x="4" y="1" width="69" height="50" rx="14" fill="#F0F0F0"/>
<rect x="4.5" y="1.5" width="68" height="49" rx="13.5" stroke="#F0F0F0"/>
</g>
<g filter="url(#filter1_d_66_1569)">
<rect x="104" y="1" width="95" height="50" rx="14" fill="#F0F0F0"/>
<rect x="104.5" y="1.5" width="94" height="49" rx="13.5" stroke="#F0F0F0"/>
</g>
<rect x="5" y="2" width="67" height="44" rx="13" fill="white" stroke="#F0F0F0" stroke-width="2"/>
<rect x="105" y="2" width="93" height="44" rx="13" fill="white" stroke="#F0F0F0" stroke-width="2"/>
<path d="M34.4659 22H32.7045C32.6004 21.4934 32.4181 21.0483 32.1577 20.6648C31.902 20.2812 31.5895 19.9593 31.2202 19.6989C30.8556 19.4337 30.4508 19.2348 30.0057 19.1023C29.5606 18.9697 29.0966 18.9034 28.6136 18.9034C27.733 18.9034 26.9351 19.1259 26.2202 19.571C25.5099 20.0161 24.9441 20.6719 24.5227 21.5384C24.1061 22.4048 23.8977 23.4678 23.8977 24.7273C23.8977 25.9867 24.1061 27.0497 24.5227 27.9162C24.9441 28.7827 25.5099 29.4384 26.2202 29.8835C26.9351 30.3286 27.733 30.5511 28.6136 30.5511C29.0966 30.5511 29.5606 30.4848 30.0057 30.3523C30.4508 30.2197 30.8556 30.0232 31.2202 29.7628C31.5895 29.4976 31.902 29.1733 32.1577 28.7898C32.4181 28.4015 32.6004 27.9564 32.7045 27.4545H34.4659C34.3333 28.1979 34.0919 28.8632 33.7415 29.4503C33.3911 30.0374 32.9555 30.5369 32.4347 30.9489C31.9138 31.3561 31.3291 31.6662 30.6804 31.8793C30.0365 32.0923 29.3475 32.1989 28.6136 32.1989C27.3731 32.1989 26.2699 31.8958 25.304 31.2898C24.3381 30.6837 23.5781 29.822 23.0241 28.7045C22.4702 27.5871 22.1932 26.2614 22.1932 24.7273C22.1932 23.1932 22.4702 21.8674 23.0241 20.75C23.5781 19.6326 24.3381 18.7708 25.304 18.1648C26.2699 17.5587 27.3731 17.2557 28.6136 17.2557C29.3475 17.2557 30.0365 17.3622 30.6804 17.5753C31.3291 17.7884 31.9138 18.1009 32.4347 18.5128C32.9555 18.92 33.3911 19.4171 33.7415 20.0043C34.0919 20.5866 34.3333 21.2519 34.4659 22ZM41.8292 21.0909V22.5114H36.1758V21.0909H41.8292ZM37.8235 18.4773H39.4996V28.875C39.4996 29.3485 39.5683 29.7036 39.7056 29.9403C39.8477 30.1723 40.0276 30.3286 40.2454 30.4091C40.4679 30.4848 40.7023 30.5227 40.9485 30.5227C41.1332 30.5227 41.2847 30.5133 41.4031 30.4943C41.5214 30.4706 41.6161 30.4517 41.6871 30.4375L42.0281 31.9432C41.9144 31.9858 41.7558 32.0284 41.5522 32.071C41.3486 32.1184 41.0906 32.142 40.7781 32.142C40.3046 32.142 39.8406 32.0402 39.386 31.8366C38.9362 31.633 38.5621 31.3229 38.2638 30.9062C37.9703 30.4896 37.8235 29.964 37.8235 29.3295V18.4773ZM44.3505 32V21.0909H45.9698V22.7386H46.0835C46.2823 22.1989 46.6422 21.7609 47.163 21.4247C47.6838 21.0885 48.271 20.9205 48.9244 20.9205C49.0475 20.9205 49.2013 20.9228 49.386 20.9276C49.5707 20.9323 49.7103 20.9394 49.805 20.9489V22.6534C49.7482 22.6392 49.618 22.6179 49.4144 22.5895C49.2156 22.5563 49.0049 22.5398 48.7823 22.5398C48.252 22.5398 47.7785 22.651 47.3619 22.8736C46.9499 23.0914 46.6232 23.3944 46.3817 23.7827C46.145 24.1662 46.0266 24.6042 46.0266 25.0966V32H44.3505ZM53.468 17.4545V32H51.7919V17.4545H53.468Z" fill="#364153"/>
<path d="M130.716 21.0909C130.631 20.3712 130.285 19.8125 129.679 19.4148C129.073 19.017 128.33 18.8182 127.449 18.8182C126.805 18.8182 126.241 18.9223 125.759 19.1307C125.28 19.339 124.906 19.6255 124.636 19.9901C124.371 20.3546 124.239 20.7689 124.239 21.233C124.239 21.6212 124.331 21.955 124.516 22.2344C124.705 22.509 124.946 22.7386 125.24 22.9233C125.534 23.1032 125.841 23.2524 126.163 23.3707C126.485 23.4844 126.781 23.5767 127.051 23.6477L128.528 24.0455C128.907 24.1449 129.329 24.2822 129.793 24.4574C130.261 24.6326 130.709 24.8717 131.135 25.1747C131.566 25.473 131.921 25.8565 132.2 26.3253C132.48 26.794 132.619 27.3693 132.619 28.0511C132.619 28.8371 132.413 29.5473 132.001 30.1818C131.594 30.8163 130.998 31.3205 130.212 31.6946C129.43 32.0687 128.481 32.2557 127.364 32.2557C126.322 32.2557 125.42 32.0876 124.658 31.7514C123.9 31.4152 123.304 30.9465 122.868 30.3452C122.437 29.7438 122.193 29.0455 122.136 28.25H123.955C124.002 28.7992 124.187 29.2538 124.509 29.6136C124.835 29.9687 125.247 30.2339 125.744 30.4091C126.246 30.5795 126.786 30.6648 127.364 30.6648C128.036 30.6648 128.64 30.5559 129.175 30.3381C129.71 30.1155 130.134 29.8078 130.446 29.4148C130.759 29.017 130.915 28.553 130.915 28.0227C130.915 27.5398 130.78 27.1468 130.51 26.8438C130.24 26.5407 129.885 26.2945 129.445 26.1051C129.004 25.9157 128.528 25.75 128.017 25.608L126.227 25.0966C125.091 24.7699 124.191 24.3035 123.528 23.6974C122.866 23.0914 122.534 22.2983 122.534 21.3182C122.534 20.5038 122.754 19.7936 123.195 19.1875C123.64 18.5767 124.236 18.1032 124.984 17.767C125.737 17.4261 126.578 17.2557 127.506 17.2557C128.443 17.2557 129.277 17.4238 130.006 17.7599C130.735 18.0914 131.313 18.5459 131.739 19.1236C132.17 19.7012 132.397 20.357 132.42 21.0909H130.716ZM135.288 36.0909V21.0909H136.907V22.8239H137.106C137.229 22.6345 137.4 22.393 137.618 22.0994C137.84 21.8011 138.157 21.536 138.569 21.304C138.986 21.0672 139.549 20.9489 140.26 20.9489C141.178 20.9489 141.988 21.1785 142.689 21.6378C143.389 22.0971 143.936 22.7481 144.329 23.5909C144.722 24.4337 144.919 25.428 144.919 26.5739C144.919 27.7292 144.722 28.7306 144.329 29.5781C143.936 30.4209 143.392 31.0743 142.696 31.5384C142 31.9976 141.197 32.2273 140.288 32.2273C139.587 32.2273 139.026 32.1113 138.605 31.8793C138.183 31.6425 137.859 31.375 137.632 31.0767C137.404 30.7737 137.229 30.5227 137.106 30.3239H136.964V36.0909H135.288ZM136.936 26.5455C136.936 27.3693 137.056 28.0961 137.298 28.7259C137.539 29.3509 137.892 29.8409 138.356 30.196C138.82 30.5464 139.388 30.7216 140.061 30.7216C140.761 30.7216 141.346 30.5369 141.815 30.1676C142.288 29.7936 142.644 29.2917 142.88 28.6619C143.122 28.0275 143.243 27.322 143.243 26.5455C143.243 25.7784 143.124 25.0871 142.887 24.4716C142.655 23.8513 142.303 23.3613 141.829 23.0014C141.36 22.6368 140.771 22.4545 140.061 22.4545C139.379 22.4545 138.806 22.6274 138.342 22.973C137.878 23.3139 137.528 23.7921 137.291 24.4077C137.054 25.0185 136.936 25.7311 136.936 26.5455ZM152.049 32.2273C150.998 32.2273 150.092 31.9953 149.329 31.5312C148.572 31.0625 147.987 30.4091 147.575 29.571C147.168 28.7282 146.964 27.7481 146.964 26.6307C146.964 25.5133 147.168 24.5284 147.575 23.6761C147.987 22.8191 148.56 22.1515 149.294 21.6733C150.032 21.1903 150.894 20.9489 151.879 20.9489C152.447 20.9489 153.008 21.0436 153.562 21.233C154.116 21.4223 154.62 21.7301 155.075 22.1562C155.529 22.5777 155.892 23.1364 156.162 23.8324C156.431 24.5284 156.566 25.3854 156.566 26.4034V27.1136H148.157V25.6648H154.862C154.862 25.0492 154.739 24.5 154.493 24.017C154.251 23.5341 153.905 23.1529 153.456 22.8736C153.011 22.5942 152.485 22.4545 151.879 22.4545C151.211 22.4545 150.634 22.6203 150.146 22.9517C149.663 23.2784 149.291 23.7045 149.031 24.2301C148.77 24.7557 148.64 25.3191 148.64 25.9205V26.8864C148.64 27.7102 148.782 28.4086 149.066 28.9815C149.355 29.5497 149.755 29.983 150.267 30.2812C150.778 30.5748 151.372 30.7216 152.049 30.7216C152.49 30.7216 152.887 30.66 153.243 30.5369C153.602 30.4091 153.913 30.2197 154.173 29.9688C154.433 29.7131 154.635 29.3958 154.777 29.017L156.396 29.4716C156.225 30.0208 155.939 30.5038 155.537 30.9205C155.134 31.3324 154.637 31.6544 154.045 31.8864C153.453 32.1136 152.788 32.2273 152.049 32.2273ZM160.792 25.4375V32H159.116V21.0909H160.735V22.7955H160.877C161.133 22.2415 161.521 21.7964 162.042 21.4602C162.563 21.1193 163.235 20.9489 164.059 20.9489C164.798 20.9489 165.444 21.1004 165.998 21.4034C166.552 21.7017 166.983 22.1562 167.291 22.767C167.599 23.3731 167.752 24.1402 167.752 25.0682V32H166.076V25.1818C166.076 24.3248 165.854 23.6572 165.409 23.179C164.964 22.696 164.353 22.4545 163.576 22.4545C163.041 22.4545 162.563 22.5705 162.142 22.8026C161.725 23.0346 161.396 23.3731 161.154 23.8182C160.913 24.2633 160.792 24.803 160.792 25.4375ZM174.935 32.2273C174.026 32.2273 173.223 31.9976 172.527 31.5384C171.831 31.0743 171.286 30.4209 170.893 29.5781C170.5 28.7306 170.304 27.7292 170.304 26.5739C170.304 25.428 170.5 24.4337 170.893 23.5909C171.286 22.7481 171.833 22.0971 172.534 21.6378C173.235 21.1785 174.045 20.9489 174.963 20.9489C175.673 20.9489 176.234 21.0672 176.646 21.304C177.063 21.536 177.38 21.8011 177.598 22.0994C177.821 22.393 177.993 22.6345 178.116 22.8239H178.259V17.4545H179.935V32H178.315V30.3239H178.116C177.993 30.5227 177.818 30.7737 177.591 31.0767C177.364 31.375 177.039 31.6425 176.618 31.8793C176.196 32.1113 175.635 32.2273 174.935 32.2273ZM175.162 30.7216C175.834 30.7216 176.402 30.5464 176.866 30.196C177.33 29.8409 177.683 29.3509 177.925 28.7259C178.166 28.0961 178.287 27.3693 178.287 26.5455C178.287 25.7311 178.169 25.0185 177.932 24.4077C177.695 23.7921 177.345 23.3139 176.881 22.973C176.417 22.6274 175.844 22.4545 175.162 22.4545C174.452 22.4545 173.86 22.6368 173.386 23.0014C172.918 23.3613 172.565 23.8513 172.328 24.4716C172.096 25.0871 171.98 25.7784 171.98 26.5455C171.98 27.322 172.098 28.0275 172.335 28.6619C172.577 29.2917 172.932 29.7936 173.401 30.1676C173.874 30.5369 174.461 30.7216 175.162 30.7216Z" fill="#364153"/>
<path d="M87.6818 30.4581V18.7692H89.2607V30.4581H87.6818ZM82.6222 25.3984V23.8288H94.3203V25.3984H82.6222Z" fill="#364153"/>
<defs>
<filter id="filter0_d_66_1569" x="0" y="0" width="77" height="58" filterUnits="userSpaceOnUse" color-interpolation-filters="sRGB">
<feFlood flood-opacity="0" result="BackgroundImageFix"/>
<feColorMatrix in="SourceAlpha" type="matrix" values="0 0 0 0 0 0 0 0 0 0 0 0 0 0 0 0 0 0 127 0" result="hardAlpha"/>
<feOffset dy="3"/>
<feGaussianBlur stdDeviation="2"/>
<feComposite in2="hardAlpha" operator="out"/>
<feColorMatrix type="matrix" values="0 0 0 0 0 0 0 0 0 0 0 0 0 0 0 0 0 0 0.26 0"/>
<feBlend mode="normal" in2="BackgroundImageFix" result="effect1_dropShadow_66_1569"/>
<feBlend mode="normal" in="SourceGraphic" in2="effect1_dropShadow_66_1569" result="shape"/>
</filter>
<filter id="filter1_d_66_1569" x="100" y="0" width="103" height="58" filterUnits="userSpaceOnUse" color-interpolation-filters="sRGB">
<feFlood flood-opacity="0" result="BackgroundImageFix"/>
<feColorMatrix in="SourceAlpha" type="matrix" values="0 0 0 0 0 0 0 0 0 0 0 0 0 0 0 0 0 0 127 0" result="hardAlpha"/>
<feOffset dy="3"/>
<feGaussianBlur stdDeviation="2"/>
<feComposite in2="hardAlpha" operator="out"/>
<feColorMatrix type="matrix" values="0 0 0 0 0 0 0 0 0 0 0 0 0 0 0 0 0 0 0.26 0"/>
<feBlend mode="normal" in2="BackgroundImageFix" result="effect1_dropShadow_66_1569"/>
<feBlend mode="normal" in="SourceGraphic" in2="effect1_dropShadow_66_1569" result="shape"/>
</filter>
</defs>
</svg>
