<svg width="78" height="86" viewBox="0 0 78 86" fill="none" xmlns="http://www.w3.org/2000/svg">
<g filter="url(#filter0_d_67_1570)">
<rect x="4" y="1" width="70" height="78" rx="14" fill="#F0F0F0"/>
</g>
<rect x="6" y="3" width="66" height="66" rx="12" fill="white" stroke="#F0F0F0" stroke-width="4"/>
<path d="M34.2873 32.2585H31.185C31.0657 31.5956 30.8436 31.0123 30.5188 30.5085C30.194 30.0047 29.7963 29.5772 29.3256 29.2259C28.855 28.8745 28.328 28.6094 27.7447 28.4304C27.168 28.2514 26.5548 28.1619 25.9052 28.1619C24.7319 28.1619 23.6812 28.4569 22.7532 29.0469C21.8318 29.6368 21.1026 30.5019 20.5657 31.642C20.0354 32.7822 19.7702 34.1742 19.7702 35.8182C19.7702 37.4754 20.0354 38.8741 20.5657 40.0142C21.1026 41.1544 21.8351 42.0161 22.7631 42.5994C23.6912 43.1828 24.7352 43.4744 25.8952 43.4744C26.5382 43.4744 27.1481 43.3883 27.7248 43.2159C28.3081 43.0369 28.8351 42.7751 29.3058 42.4304C29.7764 42.0857 30.1741 41.6648 30.4989 41.1676C30.8304 40.6638 31.0591 40.0871 31.185 39.4375L34.2873 39.4474C34.1216 40.4484 33.8001 41.3698 33.3228 42.2116C32.8522 43.0469 32.2456 43.7694 31.5032 44.3793C30.7674 44.9825 29.9255 45.4498 28.9776 45.7812C28.0297 46.1127 26.9956 46.2784 25.8754 46.2784C24.1121 46.2784 22.5411 45.8608 21.1623 45.0256C19.7835 44.1837 18.6964 42.9806 17.9009 41.4162C17.1121 39.8518 16.7177 37.9858 16.7177 35.8182C16.7177 33.6439 17.1154 31.7779 17.9109 30.2202C18.7063 28.6558 19.7934 27.456 21.1722 26.6207C22.551 25.7789 24.1187 25.358 25.8754 25.358C26.9558 25.358 27.9634 25.5137 28.8981 25.8253C29.8394 26.1302 30.6845 26.581 31.4336 27.1776C32.1826 27.7675 32.8024 28.4901 33.293 29.3452C33.7835 30.1937 34.1149 31.1648 34.2873 32.2585ZM44.8544 30.7273V33.1136H36.5121V30.7273H44.8544ZM38.7493 27.0682H41.7223V41.5156C41.7223 42.0923 41.8085 42.5265 41.9808 42.8182C42.1532 43.1032 42.3752 43.2988 42.647 43.4048C42.9254 43.5043 43.227 43.554 43.5518 43.554C43.7905 43.554 43.9993 43.5374 44.1783 43.5043C44.3572 43.4711 44.4964 43.4446 44.5959 43.4247L45.1328 45.8807C44.9605 45.947 44.7152 46.0133 44.397 46.0795C44.0788 46.1525 43.6811 46.1922 43.2038 46.1989C42.4216 46.2121 41.6925 46.0729 41.0163 45.7812C40.3402 45.4896 39.7933 45.0388 39.3757 44.429C38.9581 43.8191 38.7493 43.0535 38.7493 42.1321V27.0682ZM48.1431 46V30.7273H51.0167V33.1534H51.1758C51.4542 32.3314 51.9447 31.6851 52.6474 31.2145C53.3567 30.7372 54.1587 30.4986 55.0536 30.4986C55.2392 30.4986 55.458 30.5052 55.7099 30.5185C55.9684 30.5317 56.1706 30.5483 56.3164 30.5682V33.4119C56.1971 33.3788 55.985 33.3423 55.68 33.3026C55.3751 33.2562 55.0702 33.233 54.7653 33.233C54.0626 33.233 53.4362 33.3821 52.886 33.6804C52.3424 33.9721 51.9116 34.3797 51.5934 34.9034C51.2752 35.4205 51.1161 36.0104 51.1161 36.6733V46H48.1431ZM61.8622 25.6364V46H58.8892V25.6364H61.8622Z" fill="#989898"/>
<defs>
<filter id="filter0_d_67_1570" x="0" y="0" width="78" height="86" filterUnits="userSpaceOnUse" color-interpolation-filters="sRGB">
<feFlood flood-opacity="0" result="BackgroundImageFix"/>
<feColorMatrix in="SourceAlpha" type="matrix" values="0 0 0 0 0 0 0 0 0 0 0 0 0 0 0 0 0 0 127 0" result="hardAlpha"/>
<feOffset dy="3"/>
<feGaussianBlur stdDeviation="2"/>
<feComposite in2="hardAlpha" operator="out"/>
<feColorMatrix type="matrix" values="0 0 0 0 0 0 0 0 0 0 0 0 0 0 0 0 0 0 0.26 0"/>
<feBlend mode="normal" in2="BackgroundImageFix" result="effect1_dropShadow_67_1570"/>
<feBlend mode="normal" in="SourceGraphic" in2="effect1_dropShadow_67_1570" result="shape"/>
</filter>
</defs>
</svg>
